#define image_width 16
#define image_height 16
static unsigned char image_bits[] = {
   0x00, 0x00, 0x00, 0x00, 0x20, 0x04, 0x10, 0x08, 0x00, 0x00, 0x20, 0x04,
   0x00, 0x00, 0x00, 0x00, 0x00, 0x00, 0x10, 0x08, 0x30, 0x0c, 0xd0, 0x0b,
   0x20, 0x04, 0xc0, 0x03, 0x00, 0x00, 0x00, 0x00 };
